<svg width="220" height="28" viewBox="0 0 220 28" fill="none" xmlns="http://www.w3.org/2000/svg">
<path d="M11.1792 12.6242C11.1792 14.1138 11.053 15.553 10.8259 16.9669L16.7057 22.0922L13.3242 26.4348L8.63042 22.2942C7.97431 23.1779 7.16678 23.9858 6.20785 24.6675C5.24891 25.3744 4.06286 25.9551 2.70016 26.4096L0 21.8397C1.05988 21.4105 1.91787 20.9308 2.59922 20.3501C3.28057 19.7946 3.81051 19.1382 4.21427 18.3807C4.61803 17.6485 4.89562 16.7901 5.04703 15.8559C5.19844 14.8965 5.29938 13.8361 5.29938 12.6242V1.38885H11.1792V12.6242ZM17.4123 26.7883V13.3564L13.7532 14.5935V8.8875L17.4123 7.6251V1.16162H23.292V26.7883H17.4123ZM30.4841 26.7883H24.579V1.16162H30.4841V26.7883Z" fill="#4748C6"/>
<path d="M46.3065 5.85732C46.3065 6.46327 46.256 7.04397 46.1299 7.62467L52.4386 11.5129L49.0571 15.8555L43.4297 12.3713C42.5717 13.1287 41.5623 13.8104 40.3762 14.4164C39.1902 14.9971 37.8527 15.4768 36.3134 15.805L33.6132 11.2351C34.6226 11.0584 35.5311 10.7807 36.3134 10.4272C37.1209 10.0737 37.777 9.64451 38.3322 9.1648C38.8874 8.68509 39.2911 8.15488 39.5939 7.59943C39.8968 7.01872 40.0229 6.43802 40.0229 5.83207V1.08545H46.2813V5.85732H46.3065ZM48.2748 27.9998C46.357 27.9998 44.641 27.8988 43.1521 27.6716C41.6632 27.4443 40.4015 27.1161 39.3668 26.6616C38.3322 26.2072 37.5499 25.6265 36.9947 24.8943C36.4396 24.1873 36.1872 23.3037 36.1872 22.2937C36.1872 21.3091 36.4648 20.4506 36.9947 19.7437C37.5499 19.0368 38.3322 18.4308 39.3668 17.9763C40.4015 17.5219 41.6632 17.1684 43.1521 16.9664C44.641 16.7644 46.357 16.6382 48.2748 16.6382C50.1675 16.6382 51.8835 16.7392 53.3723 16.9664C54.8612 17.1937 56.1482 17.5219 57.1828 17.9763C58.2175 18.4308 58.9998 19.0368 59.555 19.7437C60.1101 20.4506 60.3625 21.3091 60.3625 22.2937C60.3625 23.3037 60.0849 24.1621 59.555 24.8943C58.9998 25.6012 58.2175 26.2072 57.1828 26.6616C56.1482 27.1161 54.8864 27.4443 53.3723 27.6716C51.8582 27.8988 50.1675 27.9998 48.2748 27.9998ZM48.2748 23.6824C50.0413 23.6824 51.4545 23.5814 52.5143 23.3542C53.5742 23.1269 54.0789 22.7735 54.0789 22.2937C54.0789 21.814 53.549 21.4606 52.5143 21.2333C51.4797 21.0061 50.0413 20.9051 48.2748 20.9051C46.5084 20.9051 45.0952 21.0061 44.0353 21.2333C42.9755 21.4606 42.4708 21.814 42.4708 22.2937C42.4708 22.7735 43.0007 23.1269 44.0353 23.3542C45.07 23.5814 46.4831 23.6824 48.2748 23.6824ZM59.7568 1.16119V5.30186H62.3813V10.5029H59.7568V16.1585H53.4985V1.16119H59.7568Z" fill="#4748C6"/>
<path d="M67.1255 1.76758H90.3418V19.0119H81.8628V21.5872H91.8307V26.7883H65.6619V21.562H75.6297V18.9867H67.1255V1.76758ZM73.4091 13.7856H84.1088V6.96866H73.4091V13.7856Z" fill="#4748C6"/>
<path d="M96.2468 13.3057H122.441V18.5067H96.2468V13.3057ZM103.994 19.6681V22.2182H121.255V27.394H97.7357V19.6681H103.994ZM120.952 7.72585V12.1695H98.0385V1.46436H120.649V5.908H103.994V7.72585H120.952Z" fill="#4748C6"/>
<path d="M137.607 2.07033H142.73V6.18575H126.226V2.07033H131.349V0H137.607V2.07033ZM143.992 14.8711V11.7656L141.771 12.2453C141.418 13.1037 140.686 13.7854 139.525 14.2651C138.364 14.7448 136.674 14.972 134.478 14.972C133.115 14.972 131.98 14.8711 131.021 14.6943C130.087 14.5176 129.305 14.2399 128.699 13.9116C128.094 13.5834 127.665 13.1542 127.387 12.6492C127.109 12.1443 126.983 11.6141 126.983 11.0081C126.983 10.4022 127.109 9.84671 127.387 9.367C127.665 8.88729 128.094 8.45807 128.699 8.12985C129.305 7.80162 130.087 7.5239 131.021 7.32191C131.98 7.11993 133.115 7.04418 134.478 7.04418C135.816 7.04418 136.951 7.14518 137.86 7.32191C138.793 7.4734 139.576 7.75113 140.181 8.07935L143.992 7.22092V1.16141H149.872V14.8963H143.992V14.8711ZM150.805 20.0216V19.2137H128.497V15.9315H157.089V23.3039H134.806V24.1118H157.392V27.3941H128.497V20.0216H150.805ZM134.478 10.2507C133.872 10.2507 133.368 10.3012 132.989 10.4274C132.611 10.5537 132.409 10.7304 132.409 11.0081C132.409 11.2858 132.611 11.4878 132.989 11.6141C133.368 11.7403 133.872 11.7908 134.478 11.7908C135.084 11.7908 135.588 11.7403 135.967 11.6141C136.345 11.4878 136.547 11.2858 136.547 11.0081C136.547 10.7304 136.345 10.5284 135.967 10.4274C135.588 10.3264 135.059 10.2507 134.478 10.2507ZM157.064 14.8711H151.159V1.16141H157.064V14.8711Z" fill="#4748C6"/>
<path d="M178.766 1.86816V5.80685C178.766 6.51379 178.715 7.19549 178.589 7.82668C178.488 8.45788 178.312 9.08908 178.084 9.72028L188.734 14.7699L185.655 19.4155L175.132 14.2649C172.634 16.7392 169 18.5571 164.23 19.7185L161.656 14.8456C165.038 14.1639 167.688 13.053 169.605 11.5634C171.523 10.0738 172.457 8.12966 172.457 5.7816V1.86816H178.766ZM162.06 21.5616H188.254V26.7627H162.06V21.5616Z" fill="#4748C6"/>
<path d="M209.502 1.4646V6.33745H203.925V6.76667C203.925 7.17064 203.9 7.57461 203.824 7.95333L210.335 11.488L206.953 15.8307L201.553 12.3717C200.67 13.2554 199.585 14.0128 198.273 14.5935C196.986 15.1995 195.522 15.6035 193.907 15.8307L191.207 11.2608C192.14 11.0841 192.998 10.8568 193.781 10.6044C194.563 10.3519 195.244 10.0489 195.825 9.67019C196.405 9.31672 196.834 8.8875 197.162 8.40779C197.465 7.92808 197.642 7.37262 197.642 6.71617V6.33745H192.368V1.4646H209.502ZM205.894 28.0002C203.976 28.0002 202.26 27.8992 200.771 27.672C199.282 27.4448 198.02 27.1165 196.986 26.6621C195.951 26.2076 195.169 25.6269 194.613 24.8947C194.058 24.1878 193.806 23.3041 193.806 22.2942C193.806 21.3095 194.084 20.4511 194.613 19.7441C195.169 19.0372 195.951 18.4312 196.986 17.9768C198.02 17.5223 199.282 17.1688 200.771 16.9668C202.26 16.7649 203.976 16.6386 205.894 16.6386C207.786 16.6386 209.502 16.7396 210.991 16.9668C212.505 17.1688 213.767 17.5223 214.802 17.9768C215.836 18.4312 216.618 19.0372 217.174 19.7441C217.729 20.4511 217.981 21.3095 217.981 22.2942C217.981 23.3041 217.704 24.1625 217.174 24.8947C216.618 25.6017 215.836 26.2076 214.802 26.6621C213.767 27.1165 212.505 27.4448 210.991 27.672C209.477 27.874 207.786 28.0002 205.894 28.0002ZM205.894 23.6828C207.66 23.6828 209.073 23.5818 210.133 23.3546C211.193 23.1274 211.698 22.7739 211.698 22.2942C211.698 21.8145 211.168 21.461 210.133 21.2338C209.098 21.0065 207.66 20.9055 205.894 20.9055C204.127 20.9055 202.714 21.0065 201.654 21.2338C200.594 21.461 200.089 21.8145 200.089 22.2942C200.089 22.7739 200.619 23.1274 201.654 23.3546C202.689 23.5818 204.102 23.6828 205.894 23.6828ZM217.376 10.5034V16.1589H211.117V1.16162H217.376V5.30229H220V10.5034H217.376Z" fill="#4748C6"/>
</svg>
