<svg width="200" height="26" viewBox="0 0 200 26" fill="none" xmlns="http://www.w3.org/2000/svg">
<g clip-path="url(#clip0_339_958)">
<path d="M10.1629 11.4762C10.1629 12.8304 10.0482 14.1387 9.84171 15.4241L15.187 20.0835L12.1129 24.0313L7.84584 20.2671C7.24937 21.0704 6.51526 21.8049 5.6435 22.4246C4.77174 23.0673 3.69351 23.5952 2.45469 24.0084L0 19.8539C0.963524 19.4637 1.74352 19.0276 2.36293 18.4997C2.98234 17.9948 3.4641 17.398 3.83115 16.7094C4.19821 16.0438 4.45056 15.2634 4.58821 14.4141C4.72585 13.5419 4.81762 12.5779 4.81762 11.4762V1.26224H10.1629V11.4762ZM15.8293 24.3527V12.1418L12.5029 13.2665V8.07919L15.8293 6.93156V1.05566H21.1746V24.3527H15.8293V24.3527ZM27.7128 24.3527H22.3446V1.05566H27.7128V24.3527Z" fill="white"/>
<path d="M42.0968 5.32536C42.0968 5.87623 42.0509 6.40414 41.9362 6.93205L47.6715 10.4668L44.5974 14.4146L39.4815 11.2472C38.7015 11.9357 37.7839 12.5555 36.7057 13.1063C35.6274 13.6342 34.4116 14.0703 33.0122 14.3687L30.5575 10.2143C31.4751 10.0536 32.301 9.80114 33.0122 9.4798C33.7463 9.15847 34.3427 8.76827 34.8474 8.33217C35.3521 7.89607 35.7192 7.41406 35.9945 6.9091C36.2698 6.38119 36.3845 5.85328 36.3845 5.30241V0.987305H42.0739V5.32536H42.0968ZM43.8862 25.4549C42.1427 25.4549 40.5827 25.3631 39.2292 25.1565C37.8757 24.9499 36.7286 24.6515 35.788 24.2384C34.8474 23.8252 34.1363 23.2973 33.6316 22.6317C33.1269 21.989 32.8975 21.1857 32.8975 20.2676C32.8975 19.3724 33.1498 18.592 33.6316 17.9494C34.1363 17.3067 34.8474 16.7558 35.788 16.3427C36.7286 15.9295 37.8757 15.6082 39.2292 15.4246C40.5827 15.2409 42.1427 15.1262 43.8862 15.1262C45.6068 15.1262 47.1668 15.218 48.5203 15.4246C49.8738 15.6311 51.0438 15.9295 51.9844 16.3427C52.925 16.7558 53.6362 17.3067 54.1409 17.9494C54.6456 18.592 54.875 19.3724 54.875 20.2676C54.875 21.1857 54.6226 21.9661 54.1409 22.6317C53.6362 23.2744 52.925 23.8252 51.9844 24.2384C51.0438 24.6515 49.8968 24.9499 48.5203 25.1565C47.1438 25.3631 45.6068 25.4549 43.8862 25.4549ZM43.8862 21.53C45.4921 21.53 46.7768 21.4382 47.7403 21.2316C48.7038 21.025 49.1627 20.7037 49.1627 20.2676C49.1627 19.8315 48.6809 19.5101 47.7403 19.3036C46.7997 19.097 45.4921 19.0052 43.8862 19.0052C42.2803 19.0052 40.9956 19.097 40.0321 19.3036C39.0686 19.5101 38.6098 19.8315 38.6098 20.2676C38.6098 20.7037 39.0915 21.025 40.0321 21.2316C40.9727 21.4382 42.2574 21.53 43.8862 21.53ZM54.3244 1.05616V4.82041H56.7103V9.54866H54.3244V14.6901H48.635V1.05616H54.3244Z" fill="white"/>
<path d="M61.0232 1.60645H82.1289V17.2831H74.4207V19.6243H83.4824V24.3526H59.6926V19.6014H68.7543V17.2602H61.0232V1.60645ZM66.7355 12.5319H76.4625V6.3347H66.7355V12.5319V12.5319Z" fill="white"/>
<path d="M87.4971 12.0959H111.31V16.8241H87.4971V12.0959ZM94.54 17.88V20.1982H110.232V24.9035H88.8507V17.88H94.54ZM109.956 7.02332V11.063H89.1259V1.33105H109.681V5.37073H94.54V7.02332H109.956V7.02332Z" fill="white"/>
<path d="M125.098 1.88212H129.755V5.62341H114.751V1.88212H119.408V0H125.098V1.88212ZM130.902 13.5191V10.696L128.883 11.1321C128.562 11.9125 127.896 12.5322 126.841 12.9683C125.786 13.4044 124.249 13.611 122.253 13.611C121.014 13.611 119.982 13.5191 119.11 13.3585C118.261 13.1978 117.55 12.9453 116.999 12.6469C116.449 12.3486 116.059 11.9584 115.806 11.4993C115.554 11.0402 115.439 10.5582 115.439 10.0074C115.439 9.45651 115.554 8.95155 115.806 8.51545C116.059 8.07935 116.449 7.68915 116.999 7.39077C117.55 7.09238 118.261 6.8399 119.11 6.65628C119.982 6.47266 121.014 6.4038 122.253 6.4038C123.469 6.4038 124.501 6.49561 125.327 6.65628C126.176 6.794 126.887 7.04648 127.437 7.34486L130.902 6.56447V1.05582H136.247V13.5421H130.902V13.5191ZM137.096 18.2015V17.467H116.816V14.4832H142.808V21.1853H122.551V21.9198H143.083V24.9037H116.816V18.2015H137.096ZM122.253 9.3188C121.702 9.3188 121.243 9.3647 120.899 9.47947C120.555 9.59423 120.372 9.7549 120.372 10.0074C120.372 10.2599 120.555 10.4435 120.899 10.5582C121.243 10.673 121.702 10.7189 122.253 10.7189C122.803 10.7189 123.262 10.673 123.606 10.5582C123.95 10.4435 124.134 10.2599 124.134 10.0074C124.134 9.7549 123.95 9.57128 123.606 9.47947C123.262 9.38765 122.78 9.3188 122.253 9.3188ZM142.785 13.5191H137.417V1.05582H142.785V13.5191V13.5191Z" fill="white"/>
<path d="M162.514 1.69824V5.27886C162.514 5.92154 162.468 6.54126 162.354 7.11508C162.262 7.6889 162.101 8.26271 161.895 8.83653L171.576 13.4271L168.777 17.6504L159.211 12.968C156.94 15.2174 153.636 16.87 149.3 17.9258L146.96 13.4959C150.034 12.8762 152.443 11.8663 154.187 10.5121C155.93 9.15787 156.779 7.39051 156.779 5.25591V1.69824H162.514ZM147.327 19.6014H171.14V24.3296H147.327V19.6014Z" fill="white"/>
<path d="M190.457 1.3311V5.76097H185.387V6.15116C185.387 6.51841 185.364 6.88565 185.295 7.22994L191.214 10.4433L188.139 14.3912L183.23 11.2467C182.427 12.05 181.441 12.7386 180.248 13.2665C179.078 13.8174 177.747 14.1846 176.279 14.3912L173.824 10.2367C174.673 10.0761 175.453 9.8695 176.164 9.63997C176.875 9.41045 177.495 9.13501 178.022 8.79072C178.55 8.46939 178.94 8.07919 179.238 7.64309C179.514 7.20699 179.674 6.70203 179.674 6.10526V5.76097H174.88V1.3311H190.457ZM187.176 25.4544C185.432 25.4544 183.872 25.3626 182.519 25.156C181.165 24.9494 180.018 24.651 179.078 24.2379C178.137 23.8247 177.426 23.2968 176.921 22.6312C176.417 21.9885 176.187 21.1852 176.187 20.2671C176.187 19.3719 176.44 18.5915 176.921 17.9489C177.426 17.3062 178.137 16.7553 179.078 16.3422C180.018 15.929 181.165 15.6077 182.519 15.4241C183.872 15.2404 185.432 15.1257 187.176 15.1257C188.897 15.1257 190.457 15.2175 191.81 15.4241C193.187 15.6077 194.334 15.929 195.274 16.3422C196.215 16.7553 196.926 17.3062 197.431 17.9489C197.935 18.5915 198.165 19.3719 198.165 20.2671C198.165 21.1852 197.912 21.9656 197.431 22.6312C196.926 23.2739 196.215 23.8247 195.274 24.2379C194.334 24.651 193.187 24.9494 191.81 25.156C190.434 25.3396 188.897 25.4544 187.176 25.4544ZM187.176 21.5295C188.782 21.5295 190.067 21.4377 191.03 21.2311C191.994 21.0245 192.452 20.7032 192.452 20.2671C192.452 19.831 191.971 19.5096 191.03 19.3031C190.089 19.0965 188.782 19.0047 187.176 19.0047C185.57 19.0047 184.285 19.0965 183.322 19.3031C182.358 19.5096 181.9 19.831 181.9 20.2671C181.9 20.7032 182.381 21.0245 183.322 21.2311C184.262 21.4377 185.547 21.5295 187.176 21.5295ZM197.614 9.54816V14.6896H191.925V1.05566H197.614V4.81991H200V9.54816H197.614Z" fill="white"/>
</g>
<defs>
<clipPath id="clip0_339_958">
<rect width="200" height="25.4545" fill="white"/>
</clipPath>
</defs>
</svg>
